<svg width="39" height="37" viewBox="0 0 39 37" fill="none" xmlns="http://www.w3.org/2000/svg">
<path d="M18.8058 18.6619C15.2663 18.612 14.3803 21.6391 11.0743 24.3336C6.31225 28.2922 7.05806 31.9847 9.90994 32.8663C12.7618 33.7478 15.2621 30.7706 18.4276 31.0866C21.5527 31.2031 23.9157 34.4299 26.776 33.7646C29.6565 33.1991 30.6287 29.5399 26.0986 25.1155C23.0508 22.2048 22.3022 19.0279 18.8058 18.6619Z" fill="#FFFFDE" fill-opacity="0.6"/>
<path d="M9.78214 15.3135C11.587 18.1993 11.7365 21.4603 10.1325 22.5939C8.42979 23.7433 5.59972 22.3361 3.79484 19.4503C1.98996 16.5645 1.84047 13.3034 3.44452 12.1698C5.14721 11.0205 7.97727 12.4276 9.78214 15.3135Z" fill="#FFFFDE" fill-opacity="0.6"/>
<path d="M27.3205 16.343C25.2697 18.8527 25.033 21.9018 26.6796 23.195C28.3262 24.4881 31.3417 23.5887 33.3925 21.0789C35.4432 18.5692 35.6799 15.52 34.0333 14.2269C32.2835 12.9504 29.2681 13.8498 27.3205 16.343Z" fill="#FFFFDE" fill-opacity="0.6"/>
<path d="M18.0159 9.54679C18.6161 13.0422 17.2229 16.0957 15.0499 16.3357C12.8768 16.5758 10.6412 13.8872 10.041 10.3918C9.44075 6.89639 10.834 3.84284 13.007 3.60281C15.18 3.36277 17.4157 6.0514 18.0159 9.54679Z" fill="#FFFFDE" fill-opacity="0.6"/>
<path d="M19.8988 9.54424C19.2057 12.7394 20.4073 15.6303 22.4578 16.097C24.6079 16.5476 26.8504 14.397 27.5629 11.2982C28.256 8.10302 27.0543 5.21207 25.0039 4.74542C22.934 4.18241 20.5918 6.34909 19.8988 9.54424Z" fill="#FFFFDE" fill-opacity="0.6"/>
</svg>
