<svg width="73" height="75" viewBox="0 0 73 75" fill="none" xmlns="http://www.w3.org/2000/svg">
<path d="M35.73 35.4762C32.8558 30.5965 27.7451 32.0163 21.0902 29.8828C11.3945 26.822 6.77872 31.1149 7.99699 35.8259C9.0963 40.4366 15.5252 41.3562 17.707 45.8567C20.203 50.2127 17.6097 56.2113 21.005 59.6886C24.2813 63.0656 30.2367 61.3349 32.7585 51.1833C34.4001 44.3821 38.4092 40.6007 35.73 35.4762Z" fill="#E7A66B"/>
<path d="M32.8437 21.3775C30.6953 26.3188 26.3626 29.0087 23.2791 27.636C20.1955 26.2633 19.4649 20.9405 21.7323 16.0995C23.8807 11.1582 28.0944 8.36797 31.297 9.84101C34.4995 11.314 34.9922 16.4362 32.8437 21.3775Z" fill="#E7A66B"/>
<path d="M45.9921 45.5633C40.7862 44.8565 36.3132 47.2234 35.8874 50.7524C35.4616 54.2815 39.3875 57.5924 44.5719 58.0765C49.7778 58.7834 54.2509 56.4165 54.6767 52.8874C55.1025 49.3584 51.1766 46.0475 45.9921 45.5633Z" fill="#E7A66B"/>
<path d="M48.0141 26.8046C43.7671 30.3854 38.4732 31.0368 36.1272 28.2397C33.7812 25.4426 35.4537 20.1 39.7007 16.5193C43.9477 12.9385 49.2416 12.2871 51.5876 15.0842C53.9336 17.8812 52.261 23.2238 48.0141 26.8046Z" fill="#E7A66B"/>
<path d="M49.3537 29.3668C44.0693 31.2541 40.8716 35.5151 42.0803 38.9902C43.2891 42.4652 48.4403 43.7399 53.7246 41.8526C59.009 39.9653 62.2067 35.7043 60.998 32.2292C59.7893 28.7541 54.6381 27.4795 49.3537 29.3668Z" fill="#E7A66B"/>
</svg>
