<svg width="51" height="53" viewBox="0 0 51 53" fill="none" xmlns="http://www.w3.org/2000/svg">
<path d="M24.4905 25.9946C20.3639 26.8844 20.0358 30.8797 16.8169 35.1129C12.1984 41.3064 13.9216 45.6887 17.4415 46.0159C20.9615 46.3432 23.178 41.9757 26.9314 41.5168C30.5917 40.821 34.087 44.1904 37.2582 42.5956C40.4758 41.1192 40.7577 36.3163 34.4654 32.0432C30.2471 29.2502 28.6403 25.5086 24.4905 25.9946Z" fill="#EFBF82"/>
<path d="M13.2231 24.2648C15.9905 27.3611 16.9204 31.3683 15.3184 33.2065C13.6053 35.0908 9.98885 34.1054 7.22145 31.0091C4.45406 27.9128 3.52419 23.9056 5.12624 22.0674C6.83928 20.1831 10.4557 21.1685 13.2231 24.2648Z" fill="#EFBF82"/>
<path d="M33.8525 20.8267C32.0501 24.493 32.4819 28.341 34.696 29.5032C36.9101 30.6653 40.2073 28.7381 42.0096 25.0718C43.812 21.4055 43.3802 17.5575 41.1661 16.3954C38.8358 15.2815 35.5386 17.2087 33.8525 20.8267Z" fill="#EFBF82"/>
<path d="M21.4596 14.8946C22.9678 19.0714 22.056 23.2358 19.5853 24.1181C17.1146 25.0003 13.8922 22.2646 12.384 18.0878C10.8758 13.911 11.7876 9.74658 14.2583 8.86433C16.729 7.98208 19.9514 10.7178 21.4596 14.8946Z" fill="#EFBF82"/>
<path d="M23.6478 14.3848C23.5828 18.5367 25.6501 21.8016 28.1421 21.8294C30.7463 21.8105 32.8547 18.5383 32.9647 14.5008C33.0297 10.3488 30.9624 7.08395 28.4704 7.05614C25.9334 6.91398 23.7128 10.2329 23.6478 14.3848Z" fill="#EFBF82"/>
</svg>
